<svg width="228" height="35" viewBox="0 0 228 35" fill="none" xmlns="http://www.w3.org/2000/svg">
<path d="M100.06 31.3423C97.0576 33.2198 93.4853 34.2184 89.7161 34.2184L0.703214 34.2184C0.316446 34.2184 -3.38123e-08 33.902 0 33.5152C3.38123e-08 33.1284 0.316446 32.812 0.703214 32.812L89.7161 32.812C93.211 32.812 96.5302 31.8908 99.3079 30.1538C104.033 27.1933 106.431 22.6224 106.431 16.5677C106.431 8.22058 101.643 3.6075 97.1561 2.07449C92.2969 0.414904 87.3181 1.91978 84.1536 6.01249C81.7064 9.16992 81.3408 12.3203 81.9948 14.9363V14.9503C82.6347 16.9053 84.667 19.3736 87.3251 20.3088C89.3152 21.012 91.2842 20.7378 93.1688 19.5072C95.9325 17.6999 96.2911 15.2809 95.4121 13.6846C94.9128 12.7774 93.8931 12.0179 92.8243 12.5032C92.1421 12.8126 91.7202 13.2275 91.5303 13.783C91.1506 14.9292 91.889 16.2935 91.889 16.3005C92.0367 16.5607 92.0015 16.8912 91.7976 17.1162C91.6007 17.3413 91.2772 17.4116 91.0029 17.2991C89.4207 16.6451 87.1915 14.43 87.1142 11.9757C87.072 10.6256 87.6697 8.71283 90.7287 7.21498C93.8721 5.68198 97.3319 6.94776 99.1462 10.2951C101.129 13.9518 100.531 19.2118 95.5598 22.1934C90.8201 25.0344 85.8976 23.1568 83.1269 20.0346C82.044 18.818 81.1931 17.2991 80.7219 15.6043C80.6938 15.534 80.6727 15.4637 80.6446 15.3934C80.6235 15.323 80.6094 15.2527 80.6094 15.1894C79.8781 12.1234 80.3985 8.54406 83.0215 5.15456C85.6163 1.80727 89.2941 7.21908e-06 93.2181 7.56212e-06C94.6597 7.68815e-06 96.1364 0.246134 97.5991 0.745416C102.543 2.44016 107.831 7.48221 107.831 16.5748C107.831 24.7672 103.598 29.1342 100.046 31.3634L100.06 31.3423Z" fill="#F0F0F0"/>
<path d="M95.9319 26.1945C95.9601 26.5601 95.6999 26.8906 95.3342 26.9469C95.2498 26.961 86.4315 28.3111 74.6808 28.3111C74.294 28.3111 73.9846 28.0017 73.9776 27.622C73.9776 27.4884 73.9495 24.3872 77.4304 21.0329C77.564 20.9063 77.7328 20.843 77.9156 20.843C77.9648 20.843 78.0211 20.843 78.0773 20.8571C78.3094 20.9063 78.4993 21.0751 78.5907 21.293C78.6047 21.3352 80.4683 25.5405 95.2357 25.5405C95.6014 25.5405 95.9108 25.8217 95.939 26.1945H95.9319Z" fill="#F0F0F0"/>
<path d="M72.3954 28.0158C72.2688 28.0158 59.7376 28.4588 47.1993 27.8892C39.8155 27.5517 33.8663 26.9329 29.5134 26.0468C23.726 24.8724 20.7232 23.2199 20.3435 20.9907C20.1325 19.746 20.3576 18.8178 21.0116 18.2271C21.5601 17.7278 22.3547 17.5098 23.4236 17.5098C25.6668 17.5098 29.1267 18.4732 34.1054 19.8585C42.8886 22.3057 56.1652 26.0117 72.4025 26.5953C72.7822 26.6094 73.0846 26.9188 73.0846 27.2985C73.0846 27.6783 72.7822 27.9877 72.4025 28.0018L72.3954 28.0158Z" fill="#F0F0F0"/>
<path d="M49.3104 16.9895C44.8098 13.7195 44.3527 11.2794 44.4793 10.1191C44.5848 9.1416 45.1755 8.354 46.0897 7.9602C46.5257 7.77033 47.0039 7.67892 47.5102 7.67892C48.6283 7.67892 49.8589 8.12194 50.977 8.9658C51.7857 9.5776 52.714 10.3441 53.7828 11.2372C58.3537 15.0486 65.2734 20.815 74.0213 22.791C74.38 22.8754 74.6191 23.2129 74.5628 23.5786C74.5136 23.9443 74.1831 24.2045 73.8174 24.1834C73.1634 24.1412 57.7419 23.1004 49.3104 16.9895Z" fill="#F0F0F0"/>
<path d="M70.0388 3.2205C71.9586 3.92371 72.0078 6.32167 72.0711 9.09234C72.1484 12.728 72.2539 17.2567 76.1146 20.2805C76.4029 20.5055 76.4732 20.9134 76.2693 21.2228C76.0724 21.5322 75.6715 21.6377 75.3481 21.4619C75.0738 21.3142 68.6113 17.8544 66.3047 11.7856C64.8631 7.98829 64.835 5.11918 66.2344 3.70572C66.586 3.34708 67.2541 2.88296 68.33 2.88296C68.8152 2.88296 69.3778 2.97437 70.0388 3.2205Z" fill="#F0F0F0"/>
<path d="M127.601 31.3423C130.604 33.2198 134.176 34.2184 137.946 34.2184L226.958 34.2184C227.345 34.2184 227.662 33.9019 227.662 33.5152C227.662 33.1284 227.345 32.812 226.958 32.812L137.946 32.812C134.451 32.812 131.131 31.8908 128.354 30.1538C123.628 27.1933 121.23 22.6224 121.23 16.5677C121.23 8.22057 126.019 3.60749 130.506 2.07448C135.365 0.414897 140.344 1.91977 143.508 6.01248C145.955 9.16991 146.321 12.3203 145.667 14.9363V14.9503C145.027 16.9053 142.995 19.3735 140.337 20.3088C138.346 21.012 136.377 20.7378 134.493 19.5072C131.729 17.6999 131.371 15.2808 132.25 13.6845C132.749 12.7774 133.769 12.0179 134.837 12.5031C135.52 12.8126 135.941 13.2275 136.131 13.783C136.511 14.9292 135.773 16.2935 135.773 16.3005C135.625 16.5607 135.66 16.8912 135.864 17.1162C136.061 17.3413 136.384 17.4116 136.659 17.2991C138.241 16.6451 140.47 14.43 140.548 11.9757C140.59 10.6256 139.992 8.71282 136.933 7.21498C133.79 5.68197 130.33 6.94775 128.516 10.2951C126.532 13.9518 127.13 19.2118 132.102 22.1934C136.842 25.0344 141.764 23.1568 144.535 20.0346C145.618 18.818 146.469 17.2991 146.94 15.6043C146.968 15.534 146.989 15.4637 147.017 15.3934C147.038 15.323 147.052 15.2527 147.052 15.1894C147.784 12.1234 147.263 8.54405 144.64 5.15456C142.045 1.80726 138.368 -3.43041e-07 134.444 0C133.002 1.26028e-07 131.525 0.246126 130.063 0.745408C125.119 2.44015 119.831 7.4822 119.831 16.5748C119.831 24.7672 124.064 29.1342 127.615 31.3633L127.601 31.3423Z" fill="#F0F0F0"/>
<path d="M131.73 26.1943C131.701 26.56 131.962 26.8905 132.327 26.9467C132.412 26.9608 141.23 28.311 152.981 28.311C153.367 28.311 153.677 28.0016 153.684 27.6218C153.684 27.4882 153.712 24.387 150.231 21.0327C150.097 20.9061 149.929 20.8428 149.746 20.8428C149.697 20.8428 149.64 20.8428 149.584 20.8569C149.352 20.9061 149.162 21.0749 149.071 21.2929C149.057 21.3351 147.193 25.5403 132.426 25.5403C132.06 25.5403 131.751 25.8216 131.723 26.1943H131.73Z" fill="#F0F0F0"/>
<path d="M155.266 28.0157C155.393 28.0157 167.924 28.4587 180.462 27.8891C187.846 27.5515 193.795 26.9327 198.148 26.0467C203.935 24.8723 206.938 23.2197 207.318 20.9906C207.529 19.7459 207.304 18.8176 206.65 18.2269C206.101 17.7276 205.307 17.5096 204.238 17.5096C201.995 17.5096 198.535 18.473 193.556 19.8584C184.773 22.3056 171.496 26.0115 155.259 26.5952C154.879 26.6092 154.577 26.9187 154.577 27.2984C154.577 27.6781 154.879 27.9875 155.259 28.0016L155.266 28.0157Z" fill="#F0F0F0"/>
<path d="M178.351 16.9893C182.852 13.7194 183.309 11.2792 183.182 10.1189C183.077 9.14145 182.486 8.35385 181.572 7.96005C181.136 7.77019 180.658 7.67877 180.151 7.67877C179.033 7.67877 177.803 8.12179 176.684 8.96565C175.876 9.57745 174.948 10.3439 173.879 11.237C169.308 15.0485 162.388 20.8148 153.64 22.7908C153.281 22.8752 153.042 23.2128 153.099 23.5784C153.148 23.9441 153.478 24.2043 153.844 24.1832C154.498 24.141 169.92 23.1003 178.351 16.9893Z" fill="#F0F0F0"/>
<path d="M157.623 3.22035C155.703 3.92356 155.654 6.32153 155.59 9.09219C155.513 12.7278 155.408 17.2565 151.547 20.2803C151.259 20.5054 151.188 20.9132 151.392 21.2226C151.589 21.532 151.99 21.6375 152.313 21.4617C152.588 21.3141 159.05 17.8542 161.357 11.7855C162.798 7.98814 162.826 5.11903 161.427 3.70557C161.075 3.34693 160.407 2.88281 159.331 2.88281C158.846 2.88281 158.284 2.97423 157.623 3.22035Z" fill="#F0F0F0"/>
</svg>
